<?xml version="1.0" encoding="UTF-8" standalone="no"?>
<svg width="46px" height="46px" viewBox="0 0 46 46" version="1.1" xmlns="http://www.w3.org/2000/svg" xmlns:xlink="http://www.w3.org/1999/xlink">
    <!-- Generator: Sketch 42 (36781) - http://www.bohemiancoding.com/sketch -->
    <title>Group 2</title>
    <desc>Created with Sketch.</desc>
    <defs>
        <polygon id="path-1" points="26.7464748 26.1804016 26.7464748 0.389523925 0.000227658635 0.389523925 0.000227658635 26.1804016 26.7464748 26.1804016"></polygon>
        <polygon id="path-3" points="0 26.3604795 26.7464748 26.3604795 26.7464748 0.569032759 0 0.569032759"></polygon>
    </defs>
    <g id="Page-1" stroke="none" stroke-width="1" fill="none" fill-rule="evenodd">
        <g id="semana-admin" transform="translate(-1126.000000, -15.000000)">
            <g id="Menu" transform="translate(1112.000000, 15.000000)">
                <g id="Icons" transform="translate(14.000000, 0.000000)">
                    <g id="Group-2" transform="translate(0.497567, 0.342990)">
                        <circle id="Oval" fill="#FF8400" cx="22.6570103" cy="22.6570103" r="22.6570103"></circle>
                        <g id="ico-orden" transform="translate(10.875365, 10.875365)">
                            <g id="Group-3" transform="translate(0.000000, 0.179736)">
                                <mask id="mask-2" fill="white">
                                    <use xlink:href="#path-1"></use>
                                </mask>
                                <g id="Clip-2"></g>
                                <path d="M19.1047712,24.2703456 C15.9443002,24.2703456 13.373465,21.6995105 13.373465,18.5390395 C13.373465,15.3779993 15.9443002,12.8071642 19.1047712,12.8071642 C22.2652422,12.8071642 24.8360773,15.3779993 24.8360773,18.5390395 C24.8360773,21.6995105 22.2652422,24.2703456 19.1047712,24.2703456 L19.1047712,24.2703456 Z M1.91085275,19.4940674 L1.91085275,2.29957987 L21.0148271,2.29957987 L21.0148271,11.148671 C20.4029945,10.9904483 19.7655504,10.8971082 19.1047712,10.8971082 L19.1047712,9.94208026 L7.64158975,9.94208026 L7.64158975,11.8521362 L15.4132864,11.8521362 C14.5390772,12.3370491 13.7707294,12.9881528 13.1486521,13.7627613 L7.64158975,13.7627613 L7.64158975,15.6733864 L12.0257259,15.6733864 C11.6654561,16.5589785 11.4628399,17.5253894 11.4628399,18.5390395 C11.4628399,18.863453 11.490159,19.1804677 11.5288609,19.4940674 L1.91085275,19.4940674 Z M22.9254522,11.9312476 L22.9254522,0.389523925 L0.000227658635,0.389523925 L0.000227658635,21.4046925 L12.0257259,21.4046925 C13.1617425,24.2014789 15.9044599,26.1804016 19.1047712,26.1804016 C23.3181634,26.1804016 26.7467024,22.7524317 26.7467024,18.5390395 C26.7467024,15.7177798 25.2060226,13.2550825 22.9254522,11.9312476 L22.9254522,11.9312476 Z" id="Fill-1" fill="#FFFFFF" mask="url(#mask-2)"></path>
                            </g>
                            <polygon id="Fill-4" fill="#FFFFFF" points="20.059913 14.8976965 18.1492879 14.8976965 18.1492879 17.7633496 15.2836348 17.7633496 15.2836348 19.6739747 18.1492879 19.6739747 18.1492879 22.5396278 20.059913 22.5396278 20.059913 19.6739747 22.9255661 19.6739747 22.9255661 17.7633496 20.059913 17.7633496"></polygon>
                            <mask id="mask-4" fill="white">
                                <use xlink:href="#path-3"></use>
                            </mask>
                            <g id="Clip-7"></g>
                            <polygon id="Fill-6" fill="#FFFFFF" mask="url(#mask-4)" points="3.82068105 8.210964 5.73130614 8.210964 5.73130614 6.3003389 3.82068105 6.3003389"></polygon>
                            <polygon id="Fill-8" fill="#FFFFFF" mask="url(#mask-4)" points="7.64136209 8.210964 19.1045435 8.210964 19.1045435 6.3003389 7.64136209 6.3003389"></polygon>
                            <polygon id="Fill-9" fill="#FFFFFF" mask="url(#mask-4)" points="3.82068105 12.0322142 5.73130614 12.0322142 5.73130614 10.1221582 3.82068105 10.1221582"></polygon>
                            <polygon id="Fill-10" fill="#FFFFFF" mask="url(#mask-4)" points="3.82068105 15.8528952 5.73130614 15.8528952 5.73130614 13.9428393 3.82068105 13.9428393"></polygon>
                        </g>
                    </g>
                </g>
            </g>
        </g>
    </g>
</svg>