<?xml version="1.0" encoding="UTF-8" standalone="no"?>
<svg width="46px" height="46px" viewBox="0 0 46 46" version="1.1" xmlns="http://www.w3.org/2000/svg" xmlns:xlink="http://www.w3.org/1999/xlink">
    <!-- Generator: Sketch 42 (36781) - http://www.bohemiancoding.com/sketch -->
    <title>Ico proyecto</title>
    <desc>Created with Sketch.</desc>
    <defs></defs>
    <g id="Page-1" stroke="none" stroke-width="1" fill="none" fill-rule="evenodd">
        <g id="semana-admin" transform="translate(-1178.000000, -15.000000)">
            <g id="Menu" transform="translate(1112.000000, 15.000000)">
                <g id="Icons" transform="translate(14.000000, 0.000000)">
                    <g id="Ico-proyecto" transform="translate(52.000000, 0.000000)">
                        <circle id="Oval" fill="#9012FE" cx="22.8125608" cy="23" r="22.6570103"></circle>
                        <path d="M29.1565237,33.875365 C26.1576418,33.875365 23.7188412,31.4365644 23.7188412,28.4376825 C23.7188412,25.4388006 26.1576418,23 29.1565237,23 C32.1554056,23 34.5942062,25.4388006 34.5942062,28.4376825 C34.5942062,31.4365644 32.1554056,33.875365 29.1565237,33.875365 L29.1565237,33.875365 Z M14.6560371,31.1565237 L14.6560371,11.2183546 L23.7188412,11.2183546 L23.7188412,16.6560371 L29.1565237,16.6560371 L29.1565237,21.1874392 C25.1589208,21.1874392 21.9062804,24.4400796 21.9062804,28.4376825 C21.9062804,29.399246 22.0984119,30.3164018 22.4400796,31.1565237 L14.6560371,31.1565237 Z M25.5314021,12.4998351 L27.8750432,14.8434763 L25.5314021,14.8434763 L25.5314021,12.4998351 Z M30.9690846,21.4257909 L30.9690846,15.3745566 L25.0003217,9.40579379 L12.8434763,9.40579379 L12.8434763,32.9690846 L23.5058653,32.9690846 C24.8353787,34.6239526 26.8726971,35.6879258 29.1565237,35.6879258 C33.1541266,35.6879258 36.406767,32.4352854 36.406767,28.4376825 C36.406767,25.0663193 34.0912206,22.2341931 30.9690846,21.4257909 L30.9690846,21.4257909 Z" id="Fill-1" fill="#FFFFFF"></path>
                        <polygon id="Fill-3" fill="#FFFFFF" points="30.0628041 24.8125608 28.2502433 24.8125608 28.2502433 27.5314021 25.5314021 27.5314021 25.5314021 29.3439629 28.2502433 29.3439629 28.2502433 32.0628041 30.0628041 32.0628041 30.0628041 29.3439629 32.7816454 29.3439629 32.7816454 27.5314021 30.0628041 27.5314021"></polygon>
                    </g>
                </g>
            </g>
        </g>
    </g>
</svg>