<?xml version="1.0" encoding="UTF-8" standalone="no"?>
<svg width="47px" height="46px" viewBox="0 0 47 46" version="1.1" xmlns="http://www.w3.org/2000/svg" xmlns:xlink="http://www.w3.org/1999/xlink">
    <!-- Generator: Sketch 42 (36781) - http://www.bohemiancoding.com/sketch -->
    <title>ico usuario</title>
    <desc>Created with Sketch.</desc>
    <defs>
        <polygon id="path-1" points="14.5332496 0.312074205 0.817329948 0.312074205 0.817329948 24.7816454 14.5332496 24.7816454 28.2491693 24.7816454 28.2491693 0.312074205 14.5332496 0.312074205"></polygon>
    </defs>
    <g id="Page-1" stroke="none" stroke-width="1" fill="none" fill-rule="evenodd">
        <g id="semana-admin" transform="translate(-1230.000000, -15.000000)">
            <g id="Menu" transform="translate(1112.000000, 15.000000)">
                <g id="Icons" transform="translate(14.000000, 0.000000)">
                    <g id="ico-usuario" transform="translate(127.500000, 23.000000) scale(-1, 1) translate(-127.500000, -23.000000) translate(104.000000, 0.000000)">
                        <circle id="Oval" fill="#50E3C2" cx="23.4685979" cy="23" r="22.6570103"></circle>
                        <polygon id="Fill-1" fill="#FFFFFF" points="17.0608576 23.9062804 15.2482968 23.9062804 15.2482968 26.6251217 12.5294556 26.6251217 12.5294556 28.4376825 15.2482968 28.4376825 15.2482968 31.1565237 17.0608576 31.1565237 17.0608576 28.4376825 19.7796989 28.4376825 19.7796989 26.6251217 17.0608576 26.6251217"></polygon>
                        <g id="Group-4" transform="translate(8.000000, 10.000000)">
                            <mask id="mask-2" fill="white">
                                <use xlink:href="#path-1"></use>
                            </mask>
                            <g id="Clip-3"></g>
                            <path d="M14.6549256,6.6560371 C14.6549256,4.157422 16.6877126,2.12463503 19.1863277,2.12463503 C21.6849428,2.12463503 23.7177297,4.157422 23.7177297,6.6560371 C23.7177297,9.1546522 21.6849428,11.1874392 19.1863277,11.1874392 C16.6877126,11.1874392 14.6549256,9.1546522 14.6549256,6.6560371 M8.06717326,22.9690846 C5.06919765,22.9690846 2.62949078,20.530284 2.62949078,17.5314021 C2.62949078,14.5325202 5.06919765,12.0937196 8.06717326,12.0937196 C11.0660551,12.0937196 13.5048557,14.5325202 13.5048557,17.5314021 C13.5048557,20.530284 11.0660551,22.9690846 8.06717326,22.9690846 M22.7344155,11.9124635 C24.420097,10.7705502 25.5302906,8.84107918 25.5302906,6.6560371 C25.5302906,3.1577947 22.6845701,0.312074205 19.1863277,0.312074205 C15.6880853,0.312074205 12.8423648,3.1577947 12.8423648,6.6560371 C12.8423648,8.84561058 13.957996,10.779613 15.6500215,11.92062 C14.9666861,12.2133486 14.323227,12.5822047 13.7377698,13.0253759 C12.4082564,11.3560073 10.3627815,10.2811588 8.06717326,10.2811588 C4.06957035,10.2811588 0.816929948,13.5337992 0.816929948,17.5314021 C0.816929948,21.529005 4.06957035,24.7816454 8.06717326,24.7816454 C12.0656824,24.7816454 15.3174166,21.529005 15.3174166,17.5314021 C15.3174166,16.4810231 15.0890339,15.4850209 14.6848328,14.5832719 C15.9228119,13.5972388 17.484333,13 19.1863277,13 C23.1839306,13 26.436571,16.2526404 26.436571,20.2502433 L28.2491318,20.2502433 C28.2491318,16.5118366 25.9734617,13.2954474 22.7344155,11.9124635" id="Fill-2" fill="#FFFFFF" mask="url(#mask-2)"></path>
                        </g>
                    </g>
                </g>
            </g>
        </g>
    </g>
</svg>