<?xml version="1.0" encoding="UTF-8" standalone="no"?>
<svg width="41px" height="36px" viewBox="0 0 41 36" version="1.1" xmlns="http://www.w3.org/2000/svg" xmlns:xlink="http://www.w3.org/1999/xlink">
    <!-- Generator: Sketch 42 (36781) - http://www.bohemiancoding.com/sketch -->
    <title>Fill 1</title>
    <desc>Created with Sketch.</desc>
    <defs>
        <linearGradient x1="50%" y1="0%" x2="50%" y2="100%" id="linearGradient-1">
            <stop stop-color="#FFB800" offset="0%"></stop>
            <stop stop-color="#FF5800" offset="100%"></stop>
        </linearGradient>
    </defs>
    <g id="Page-1" stroke="none" stroke-width="1" fill="none" fill-rule="evenodd">
        <g id="semana-admin" transform="translate(-89.000000, -21.000000)" fill="url(#linearGradient-1)">
            <g id="Page-1" transform="translate(89.000000, 21.000000)">
                <path d="M35.1804296,11.7062 C34.1690963,15.4047 32.6445037,17.9662 30.6162691,19.3557 C28.621442,20.7537 26.4044049,21.1277 23.9995778,20.4867 C22.8308247,20.1747 21.871121,19.8827 21.1639975,19.5867 C21.1639975,19.5867 24.9850963,10.2837 26.3031704,7.5077 C27.6202321,4.7312 28.8699728,3.9667 31.3147877,4.3467 C35.0402198,4.9267 36.2550346,7.7747 35.1804296,11.7062 L35.1804296,11.7062 Z M11.9470963,28.8437 C10.1203185,32.6742 7.50542963,31.4967 7.45025679,31.5452 C5.1522321,30.8592 4.38538025,29.1597 5.1223679,26.4632 C5.73281235,24.2307 6.63481235,22.5052 7.86126914,21.2952 C9.0882321,20.0852 10.6249728,19.7082 12.4618741,20.1982 C13.4640963,20.4657 14.3630593,20.8482 15.1496519,21.3802 L11.9470963,28.8437 Z M32.6202074,0.6197 C27.4046025,-0.9163 24.5118247,0.1962 21.6139852,6.3002 C20.2700963,9.1317 16.6519728,17.8082 16.6519728,17.8082 C15.9656025,17.3067 14.9370593,16.8902 13.6397383,16.5447 C10.3334173,15.6622 7.53681235,16.0602 5.25042963,17.7382 C3.00605926,19.3922 1.3969358,22.0017 0.431158025,25.5337 C-0.944619753,30.5652 0.96871358,33.7927 6.2126642,35.1917 C7.25538025,35.4692 8.34365185,35.7072 9.46988642,35.7447 C14.7356025,35.9187 16.8093926,29.4787 16.8093926,29.4787 L19.5022321,23.2212 C20.4978741,23.5792 21.5006025,23.8952 22.4937136,24.1602 C28.8067012,25.8442 33.143084,24.1407 35.9938494,20.7897 C37.9588123,18.4537 39.1128864,15.9372 39.978442,12.7717 C41.7085407,6.4407 39.2186765,2.5632 32.6202074,0.6197 L32.6202074,0.6197 Z" id="Fill-1"></path>
            </g>
        </g>
    </g>
</svg>